<svg width="79" height="126" viewBox="0 0 79 126" fill="none" xmlns="http://www.w3.org/2000/svg">
<path opacity="0.46" d="M46.2055 116.098C38.6087 115.94 6.75788 115.107 15.8422 117.34C24.9264 119.574 -15.2008 119.074 6.55821 122.664C28.3172 126.254 52.302 126.919 51.1406 123.081C49.9791 119.243 51.43 119.143 58.1035 118.691C64.777 118.241 58.1969 116.346 46.2055 116.098Z" fill="url(#paint0_linear_182_2651)"/>
<path d="M37.3759 84.7085C37.3759 84.7085 41.1788 90.1587 41.1788 90.6338C41.1788 91.109 32.5728 108.61 32.5728 108.61L34.553 109.857L36.6724 109.553C36.6724 109.553 48.367 95.1702 49.2701 91.7843C50.1732 88.3983 45.5313 80.68 45.5313 80.68L36.5057 83.0501L37.3759 84.7085Z" fill="#FF845E"/>
<path d="M46.2054 81.8689C46.2054 81.8689 44.412 81.715 42.265 81.538L36.5056 83.0501L37.3758 84.7084C37.3758 84.7084 37.8136 85.3356 38.3924 86.184C41.677 85.2548 46.2054 81.8689 46.2054 81.8689Z" fill="#E0643F"/>
<path d="M34.5529 109.857L36.6723 109.553C36.6723 109.553 37.896 108.048 39.5795 105.899C37.3795 105.353 35.8608 103.726 35.3003 103.035C33.7853 106.142 32.5708 108.608 32.5708 108.608L34.5529 109.857Z" fill="#EFFFE3"/>
<path d="M32.8714 108.021L32.538 108.048C32.3219 108.066 32.1314 108.202 32.0361 108.406L30.4735 111.744C30.2977 112.119 30.4186 112.573 30.7538 112.8C31.71 113.448 33.5712 114.68 35.1723 115.592C37.3888 116.858 40.4023 118.712 42.802 119.049C45.2018 119.385 44.9306 117.06 43.0951 115.594C41.2596 114.128 37.8175 110.24 37.5812 109.576C37.3449 108.912 37.0334 110.064 34.8352 109.526C32.6315 108.987 32.8714 108.021 32.8714 108.021Z" fill="#ED9E15"/>
<path d="M42.8001 119.051C44.0476 119.226 44.5734 118.679 44.5312 117.91C43.3808 118.347 41.5178 117.827 38.5685 116.49C35.8078 115.24 32.6625 111.534 31.3472 109.876L30.4716 111.746C30.2957 112.121 30.4166 112.575 30.7518 112.802C31.7081 113.45 33.5693 114.682 35.1703 115.594C37.3869 116.859 40.4003 118.712 42.8001 119.051Z" fill="#CC8812"/>
<path d="M37.5773 109.576C37.3409 108.912 37.0295 110.064 34.8313 109.526C32.6312 108.987 32.8712 108.021 32.8712 108.021L32.5378 108.048C32.4847 108.052 32.4352 108.064 32.3857 108.081C32.47 108.548 32.8877 109.155 34.1773 109.762C35.4743 110.372 36.7676 110.218 37.7604 109.893C37.667 109.757 37.6029 109.647 37.5773 109.576Z" fill="#AB710F"/>
<path d="M40.8876 115.111C40.8766 115.109 40.8674 115.103 40.8583 115.095C40.8399 115.078 40.8308 115.051 40.8399 115.026L41.1752 113.908L39.6547 114.147C39.6309 114.151 39.6052 114.139 39.5924 114.118C39.5796 114.097 39.5796 114.068 39.5924 114.047L40.2171 113.041L38.7021 113.277C38.6783 113.281 38.6545 113.27 38.6398 113.248C38.627 113.227 38.6252 113.198 38.638 113.177L39.3305 111.973L37.9327 111.883C37.8979 111.881 37.8723 111.85 37.8741 111.813C37.8759 111.777 37.9071 111.75 37.9401 111.752L39.4422 111.848C39.4642 111.85 39.4843 111.863 39.4935 111.883C39.5045 111.904 39.5027 111.929 39.4917 111.948L38.8139 113.127L40.3343 112.889C40.36 112.885 40.3838 112.896 40.3966 112.918C40.4094 112.939 40.4094 112.968 40.3966 112.989L39.772 113.995L41.2539 113.762C41.2759 113.758 41.2979 113.768 41.3107 113.785C41.3254 113.803 41.3291 113.826 41.3236 113.849L41.0011 114.92L41.8695 114.474C41.9006 114.459 41.9391 114.472 41.9537 114.505C41.9684 114.537 41.9556 114.578 41.9244 114.593L40.9224 115.107C40.915 115.111 40.9004 115.113 40.8876 115.111Z" fill="#AB710F"/>
<path d="M41.3767 115.461C41.8512 115.555 42.2633 115.265 42.4777 115.068C42.3952 114.995 42.3128 114.918 42.2285 114.839C41.3254 115.671 39.9808 114.46 38.9421 113.187C37.8485 111.846 37.8906 111.003 37.8906 111.003L37.6067 111.415C38.3614 113.739 40.6806 115.324 41.3767 115.461Z" fill="#CC8812"/>
<path d="M42.8 119.051C43.3624 119.13 43.7764 119.06 44.0604 118.893C42.7799 118.753 38.9403 117.285 35.2381 115.126C32.3822 113.46 31.0962 112.069 30.6126 111.446L30.4716 111.746C30.2957 112.121 30.4166 112.575 30.7518 112.802C31.7081 113.45 33.5693 114.682 35.1703 115.594C37.3869 116.859 40.4003 118.712 42.8 119.051Z" fill="#EFFFE3"/>
<path d="M32.0912 108.41C32.0637 108.41 32.0618 108.41 32.0344 108.408L31.5947 109.349C32.2762 110.871 33.9981 111.723 34.9763 112.1C35.066 112.135 35.1265 112.004 35.0459 111.95C33.2196 110.738 32.4136 109.222 32.0912 108.41Z" fill="#FFCA70"/>
<path d="M37.8852 111.382C37.8028 111.477 37.6617 111.478 37.5811 111.382C37.1909 110.921 36.2695 109.737 36.6505 109.264C37.1286 108.67 37.6855 109.103 38.1783 109.888C38.6711 110.674 38.6491 111.036 38.6491 111.036C38.6491 111.036 38.2516 110.961 37.8852 111.382Z" fill="#ED9E15"/>
<path d="M38.6473 111.038C38.6473 111.038 38.6564 110.898 38.5447 110.603C38.3523 110.717 38.0666 110.746 37.6489 110.52C37.0297 110.186 36.7842 109.624 36.6871 109.226C36.6743 109.239 36.6633 109.251 36.6505 109.266C36.2676 109.741 37.2001 110.934 37.5866 111.392C37.6654 111.484 37.8009 111.482 37.8797 111.39C38.2479 110.961 38.6473 111.038 38.6473 111.038Z" fill="#CC8812"/>
<path d="M38.9713 106.675C39.0024 106.634 39.0336 106.594 39.0665 106.555C37.0515 105.982 35.6062 104.578 34.9302 103.799C34.9082 103.843 34.8862 103.889 34.8643 103.933C35.5567 104.722 36.9874 106.092 38.9713 106.675Z" fill="#14826C"/>
<path d="M38.6416 107.092C38.6728 107.052 38.7039 107.013 38.7369 106.973C36.7859 106.394 35.379 105.041 34.7012 104.266C34.6792 104.31 34.6572 104.357 34.6353 104.401C35.3295 105.184 36.7218 106.504 38.6416 107.092Z" fill="#14826C"/>
<path d="M27.1996 84.6758C27.1996 84.6758 28.1888 90.3184 28.2309 91.7632C28.2731 93.2079 25.3091 116.048 25.3091 116.048L25.996 118.26L29.4125 117.685C29.4125 117.685 36.8261 93.4792 37.1283 91.2226C37.4288 88.9659 36.7418 81.0205 36.7418 81.0205L27.1996 84.6758Z" fill="#FF845E"/>
<path d="M31.8528 82.8924L27.2017 84.6758C27.2017 84.6758 27.5204 86.4976 27.8043 88.3349L32.5745 86.8247L31.8528 82.8924Z" fill="#E0643F"/>
<path d="M29.4144 117.683C29.4144 117.683 30.2479 114.961 31.369 111.255C28.8942 111.123 27.0348 110.547 26.0639 110.178C25.6334 113.56 25.311 116.046 25.311 116.046L25.9888 118.223C26.0346 118.227 26.0804 118.231 26.128 118.235L29.4144 117.683Z" fill="#EFFFE3"/>
<path d="M25.9431 111.115C26.8902 111.434 28.5792 111.869 31.1255 112.054C31.1383 112.01 31.1511 111.967 31.1658 111.923C28.5902 111.738 26.8975 111.3 25.9596 110.98C25.9541 111.025 25.9486 111.071 25.9431 111.115Z" fill="#14826C"/>
<path d="M25.8662 111.725C27.0258 112.104 28.9071 112.602 30.9404 112.671C30.9532 112.627 30.9661 112.585 30.9807 112.54C28.9345 112.477 27.0404 111.973 25.8845 111.592C25.8772 111.636 25.8717 111.68 25.8662 111.725Z" fill="#14826C"/>
<path d="M24.5141 59.0139C24.5141 59.0139 20.7112 64.2948 21.4201 69.1024C22.1291 73.9101 25.4173 81.0186 25.9338 86.9767C25.9338 86.9767 33.6698 87.3826 37.667 85.757V84.6066C37.667 84.6066 43.5125 83.6581 46.9509 81.4245C46.9509 81.4245 43.3403 73.231 39.955 68.7292L40.5998 66.1898L24.5141 59.0139Z" fill="#1EC7A5"/>
<path d="M23.8418 60.0642C25.1498 61.1647 28.2218 63.5002 32.5304 65.2201C38.3539 67.5441 39.9549 68.7292 39.9549 68.7292L40.5997 66.1897L24.5141 59.0119C24.5141 59.0138 24.2338 59.4024 23.8418 60.0642Z" fill="#1BB092"/>
<path d="M46.381 80.1759C45.5127 81.4995 44.2304 82.7096 42.3729 83.0501C37.7639 83.8966 37.7309 81.3918 37.6027 77.2613C37.4745 73.1309 38.8282 69.035 38.8282 69.035C38.8282 69.035 37.7328 71.8111 37.207 71.7092C36.6813 71.6072 33.5103 66.7668 33.5103 66.7668C33.5103 66.7668 35.0894 69.3736 36.379 72.3863C37.6686 75.3991 37.4745 84.1332 33.6074 85.3183C30.7222 86.2013 27.39 85.9378 25.7871 85.7165C25.8476 86.1417 25.8989 86.5611 25.9337 86.9766C25.9337 86.9766 33.6697 87.3826 37.6668 85.7589V84.6084C37.6668 84.6084 43.5123 83.66 46.9507 81.4264C46.9507 81.4245 46.7419 80.9531 46.381 80.1759Z" fill="#1BB092"/>
<path d="M37.9783 83.4907C37.8336 83.077 37.3005 77.0247 37.3005 77.0247L37.6651 84.6084C37.6651 84.6084 38.0424 84.5468 38.6616 84.4199C38.319 84.3025 38.1816 84.0736 37.9783 83.4907Z" fill="#14826C"/>
<path d="M35.4412 69.9816C35.4412 69.9816 36.9561 72.2228 37.3023 73.6965L37.8427 72.1228C37.8427 72.1228 37.2858 72.9019 37.2858 72.8769C37.2877 72.8519 36.0017 70.7184 35.4412 69.9816Z" fill="#14826C"/>
<path d="M25.3514 115.717L25.029 115.809C24.8201 115.869 24.6553 116.04 24.5985 116.259L23.6514 119.843C23.5451 120.247 23.743 120.669 24.113 120.826C25.1682 121.277 27.2125 122.125 28.9473 122.712C31.3489 123.524 34.6371 124.761 37.0552 124.624C39.4733 124.489 38.7955 122.254 36.7328 121.171C34.6701 120.088 30.6015 116.936 30.2535 116.33C29.9054 115.724 29.8028 116.917 27.5459 116.815C25.2872 116.711 25.3514 115.717 25.3514 115.717Z" fill="#ED9E15"/>
<path d="M37.0533 124.622C38.3118 124.551 38.7295 123.912 38.5536 123.164C37.5003 123.818 35.5787 123.67 32.4443 122.929C29.5097 122.237 25.7672 119.207 24.1826 117.833L23.6514 119.841C23.5451 120.245 23.743 120.667 24.113 120.824C25.1682 121.275 27.2125 122.123 28.9473 122.71C31.3489 123.522 34.6353 124.759 37.0533 124.622Z" fill="#CC8812"/>
<path d="M30.2515 116.329C29.9035 115.722 29.8009 116.915 27.544 116.813C25.2872 116.711 25.3513 115.717 25.3513 115.717L25.0289 115.809C24.9776 115.824 24.93 115.846 24.886 115.873C25.0509 116.317 25.5674 116.831 26.9432 117.175C28.3262 117.521 29.5683 117.119 30.4879 116.607C30.3724 116.488 30.29 116.394 30.2515 116.329Z" fill="#AB710F"/>
<path d="M34.4797 121.123C34.4687 121.123 34.4577 121.119 34.4486 121.113C34.4266 121.1 34.4138 121.075 34.4174 121.048L34.5512 119.884L33.0985 120.413C33.0747 120.42 33.049 120.415 33.0325 120.395C33.0161 120.376 33.0106 120.349 33.0197 120.324L33.4557 119.214L32.0085 119.741C31.9847 119.749 31.9591 119.743 31.9426 119.726C31.9261 119.707 31.9206 119.68 31.9279 119.657L32.3969 118.337L31.0065 118.522C30.9717 118.527 30.9406 118.5 30.9369 118.464C30.9332 118.427 30.957 118.395 30.9918 118.389L32.4848 118.191C32.5068 118.187 32.5288 118.197 32.5416 118.216C32.5544 118.233 32.5581 118.258 32.5508 118.279L32.0928 119.57L33.5455 119.041C33.5693 119.031 33.5949 119.039 33.6114 119.058C33.6279 119.078 33.6334 119.105 33.6242 119.13L33.1883 120.24L34.6025 119.724C34.6226 119.716 34.6464 119.72 34.6629 119.736C34.6794 119.749 34.6886 119.772 34.6867 119.795L34.5585 120.911L35.3334 120.303C35.3609 120.282 35.4012 120.288 35.4213 120.317C35.4415 120.345 35.436 120.388 35.4085 120.409L34.5145 121.109C34.5072 121.119 34.4944 121.123 34.4797 121.123Z" fill="#AB710F"/>
<path d="M35.0236 121.373C35.5072 121.373 35.8589 121.007 36.0366 120.773C35.9432 120.717 35.8479 120.657 35.7508 120.597C35.0108 121.59 33.4757 120.663 32.23 119.612C30.9184 118.506 30.8121 117.671 30.8121 117.671L30.6069 118.131C31.7555 120.267 34.3128 121.373 35.0236 121.373Z" fill="#CC8812"/>
<path d="M37.0532 124.622C37.6211 124.589 38.015 124.441 38.2641 124.222C36.9818 124.334 32.9498 123.637 28.9307 122.237C25.8294 121.155 24.3217 120.038 23.7374 119.52L23.6531 119.843C23.5469 120.247 23.7447 120.669 24.1147 120.826C25.1699 121.277 27.2143 122.125 28.949 122.712C31.3488 123.522 34.6352 124.759 37.0532 124.622Z" fill="#EFFFE3"/>
<path d="M24.6535 116.25C24.6278 116.253 24.6242 116.255 24.5985 116.259L24.3311 117.269C25.269 118.631 27.1118 119.135 28.1395 119.314C28.2329 119.332 28.2696 119.191 28.1816 119.155C26.1739 118.318 25.1133 116.984 24.6535 116.25Z" fill="#FFCA70"/>
<path d="M30.8725 118.044C30.8084 118.154 30.6691 118.183 30.572 118.104C30.1067 117.727 28.9948 116.744 29.2842 116.203C29.6488 115.526 30.2734 115.842 30.8963 116.519C31.5191 117.196 31.5613 117.556 31.5613 117.556C31.5613 117.556 31.1583 117.558 30.8725 118.044Z" fill="#ED9E15"/>
<path d="M31.5613 117.558C31.5613 117.558 31.5449 117.419 31.3836 117.15C31.2151 117.3 30.9385 117.383 30.4879 117.242C29.8211 117.035 29.4803 116.531 29.3136 116.157C29.3045 116.173 29.2935 116.186 29.2843 116.203C28.9912 116.746 30.1178 117.737 30.5794 118.11C30.6729 118.185 30.8066 118.156 30.8671 118.052C31.1547 117.558 31.5613 117.558 31.5613 117.558Z" fill="#CC8812"/>
<path d="M53.5989 48.2808C53.5989 48.2808 56.4181 51.938 54.9398 55.12C53.4615 58.302 46.6927 59.3851 43.9852 61.8226C41.9537 63.6502 41.1385 65.5163 40.8582 66.3359C40.7703 66.5937 40.523 66.7533 40.2628 66.7264C38.4236 66.5302 31.4131 65.4124 23.8932 59.4255C23.7027 59.2735 23.6679 58.9869 23.8145 58.7887C25.3221 56.7437 32.9354 46.5686 37.5077 43.2961C42.6003 39.6505 42.3438 38.5558 42.3438 38.5558C42.3438 38.5558 46.8356 39.0407 49.2958 42.4939L50.4993 45.6086L53.5989 48.2808Z" fill="#2167AD"/>
<path d="M35.9249 62.3786C30.5319 62.2208 27.1485 59.1042 25.3459 56.7437C24.6443 57.6652 24.1076 58.3847 23.8108 58.7887C23.6643 58.9869 23.6991 59.2735 23.8896 59.4255C31.4094 65.4125 38.4199 66.5302 40.2591 66.7265C40.5192 66.7534 40.7665 66.5956 40.8544 66.3359C41.1347 65.5164 41.9517 63.6502 43.9814 61.8226C44.0803 61.7341 44.1866 61.6456 44.2947 61.561C41.9407 62.0881 39.0849 62.4709 35.9249 62.3786Z" fill="#1F60A1"/>
<path d="M52.9667 41.455C52.9667 41.455 51.1623 42.6286 49.292 42.8652L50.0339 46.7013L51.9152 47.9768C51.9152 47.9768 52.5252 48.5732 52.877 48.3654C53.3844 48.0653 54.1629 47.6517 54.9397 47.4131C56.2549 47.0072 55.8703 40.7163 55.7182 40.7048C55.5662 40.6932 53.3001 40.2584 53.3001 40.2584L52.9667 41.455Z" fill="#FF845E"/>
<path d="M53.8352 42.3746C53.2985 43.2961 52.3166 45.1334 53.042 47.7748C53.0842 47.9287 53.1318 48.0653 53.1831 48.1922C53.6722 47.921 54.306 47.6093 54.9398 47.4131C55.4582 47.2534 55.7128 46.1761 55.8209 44.9314C55.1047 43.6193 53.8352 42.3746 53.8352 42.3746Z" fill="#E0643F"/>
<path d="M48.9806 42.4919L49.9369 42.5593C49.9369 42.5593 50.4425 44.4889 50.034 46.7013L47.7771 45.9798C47.7771 45.9798 48.8524 43.6655 48.9806 42.4919Z" fill="#164573"/>
<path d="M50.0342 46.7013C50.0342 46.7013 52.0602 47.0033 53.599 47.9691V48.7252C53.599 48.7252 51.1736 48.0749 49.8198 48.7252L50.0342 46.7013Z" fill="#164573"/>
<path d="M50.0339 46.7013C50.0339 46.7013 48.3998 47.9249 47.4326 48.5347" stroke="#164573" stroke-width="1.3785" stroke-miterlimit="10"/>
<path d="M41.9867 42.086L38.9128 46.8263L38.3541 46.4877L34.9797 44.4562C34.9797 44.4562 38.1818 37.7074 42.3402 38.5539L41.9867 42.086Z" fill="#164573"/>
<path d="M48.8415 54.4543C48.8415 54.4543 45.2089 50.0084 44.8663 49.489C44.5219 48.9695 40.7611 42.5382 39.7297 39.6043L41.6001 37.7075C41.6001 37.7075 47.0682 44.6582 48.0959 46.0799C49.1236 47.5016 51.6369 50.5028 52.0014 50.7972C52.366 51.0915 50.906 53.0096 50.906 53.0096L48.8415 54.4543Z" fill="#FF845E"/>
<path d="M63.9488 42.4708C63.9488 42.4708 64.0019 44.3773 62.7673 45.1911C61.5307 46.003 60.9299 46.3531 60.983 46.6802C61.0361 47.0072 61.5253 47.6286 60.7998 47.8191C60.1129 47.9999 59.7044 47.5594 59.7044 47.5594C59.7044 47.5594 57.845 49.4659 55.2016 48.4058C52.5582 47.3458 52.6443 42.29 55.6101 40.1237C58.5759 37.9575 60.9189 37.844 60.983 37.8671C61.049 37.8882 63.9488 42.4708 63.9488 42.4708Z" fill="#FF845E"/>
<path d="M61.0068 45.2785C61.148 45.0218 61.1047 44.7181 60.9102 44.6002C60.7157 44.4822 60.4436 44.5947 60.3024 44.8515C60.1613 45.1082 60.2046 45.4119 60.3991 45.5298C60.5936 45.6478 60.8657 45.5353 61.0068 45.2785Z" fill="#5C3C1C"/>
<path d="M60.6844 44.8169C60.7444 44.7732 60.7658 44.6965 60.7322 44.6457C60.6986 44.5948 60.6227 44.589 60.5627 44.6327C60.5027 44.6764 60.4813 44.7531 60.5149 44.8039C60.5485 44.8548 60.6244 44.8606 60.6844 44.8169Z" fill="white"/>
<path d="M60.7377 43.5173C61.0382 43.5693 61.6537 43.7078 61.8827 44.0233C61.901 44.0483 61.9358 44.0522 61.9541 44.0272C62.0329 43.9233 62.1831 43.6636 61.9156 43.4558C61.5566 43.1768 61.0015 43.3269 60.7286 43.4269C60.6846 43.4423 60.6919 43.5097 60.7377 43.5173Z" fill="#5C3C1C"/>
<path d="M56.7056 45.4643C56.7569 45.7798 56.8723 46.3473 57.0995 46.7475C57.1361 46.8129 57.0628 46.8841 57.0042 46.8418C56.7056 46.6263 56.3118 46.1819 56.5756 45.4527C56.5994 45.3854 56.6928 45.3931 56.7056 45.4643Z" fill="#5C3C1C"/>
<path d="M60.8017 47.8191C60.9867 47.771 61.0912 47.694 61.1461 47.6017C61.1388 47.6017 60.025 47.9056 59.7576 46.9533C59.7576 46.9533 59.6861 47.0149 59.655 47.2611C59.633 47.4362 59.7063 47.5593 59.7063 47.5593C59.7063 47.5593 60.113 47.9999 60.8017 47.8191Z" fill="#E0643F"/>
<path d="M63.9489 42.4708C63.9489 42.4708 62.9102 40.8317 62.0639 39.51C60.9831 39.031 59.7447 38.4885 59.1494 38.2499C58.4349 38.4885 57.5501 38.8713 56.5646 39.4812C56.5481 40.295 56.647 41.3358 56.647 41.3358C56.647 41.3358 57.6729 40.6432 58.1125 40.066C58.1125 40.066 58.8105 41.532 60.9703 41.3358C60.9703 41.3358 60.7504 43.1769 63.9013 43.0941C63.9562 42.7286 63.9489 42.4708 63.9489 42.4708Z" fill="#E0643F"/>
<path d="M56.3412 37.8632C56.3412 37.8632 55.0057 41.2049 55.8136 41.6128C56.6214 42.0187 58.2536 39.3099 58.2536 39.3099C58.2536 39.3099 58.8545 41.1376 61.2195 41.0029C61.2195 41.0029 61.2616 43.5308 64.3135 42.6959C64.3135 42.6959 66.3872 42.4266 66.6345 41.0703C66.7627 40.3642 65.5592 40.141 65.5592 40.141C65.5592 40.141 66.9349 39.6043 66.8268 38.7463C66.7188 37.8882 65.4511 38.1152 65.4511 38.1152C65.4511 38.1152 66.1179 36.8513 65.1067 36.5589C64.0973 36.2645 61.7763 34.9563 60.4006 33.7385L56.3412 37.8632Z" fill="#5C3C1C"/>
<path d="M60.168 36.1953L60.4044 33.7348C60.4044 33.7348 58.4058 32.719 55.6763 34.4793C53.0531 36.1703 52.9322 39.9275 51.1333 40.4566C50.9849 40.5008 50.9355 40.6913 51.0344 40.8144C51.104 40.901 51.2121 40.9818 51.3788 41.0241C51.3788 41.0241 51.1205 42.1303 52.8607 41.9495C54.601 41.7686 55.9767 39.1291 56.6857 38.8579C57.3946 38.5866 60.168 36.1953 60.168 36.1953Z" fill="#5C3C1C"/>
<path d="M54.0439 50.776C53.8974 50.776 53.0217 50.7587 51.9043 50.372C51.8072 50.3393 51.7028 50.4028 51.6863 50.5086C51.5928 51.1184 51.1037 52.9364 48.5482 54.1658C48.4511 54.2119 48.4182 54.3389 48.4805 54.4293C48.823 54.9315 49.9771 56.3435 52.3659 56.8226C55.2768 57.4074 55.8465 51.257 54.0897 50.7798C54.0751 50.7779 54.0604 50.776 54.0439 50.776Z" fill="#164573"/>
<path d="M35.9907 37.1783C35.9907 37.1783 31.5631 45.0218 31.0685 47.1207C30.5739 49.2196 30.4236 50.3912 32.6585 50.7529C34.8934 51.1146 38.3538 46.4897 38.3538 46.4897L36.6685 45.1353L38.6341 38.071L35.9907 37.1783Z" fill="#FF845E"/>
<path d="M37.0368 45.4297L35.5383 47.2554L36.6686 45.1334L37.0368 45.4297Z" fill="#E0643F"/>
<path d="M17.0365 0.0311253C16.8295 -0.0227423 16.6133 0.00226344 16.4027 0.0388165C15.6351 0.171562 14.8767 0.450523 14.2704 0.962265C13.9498 1.23353 13.6732 1.57597 13.5376 1.98383C13.4772 2.16467 13.446 2.3609 13.4717 2.55136C13.4992 2.76106 13.5962 2.95729 13.7135 3.12851C13.9003 3.39977 14.1568 3.63256 14.4664 3.71529C14.6807 3.773 14.9115 3.75376 15.1167 3.66527C15.4098 3.53637 15.6278 3.27472 15.8403 3.02655C16.0455 2.78991 16.3001 2.38784 16.5089 2.15313C16.9009 1.70872 17.5861 1.87994 17.9616 2.33974C17.9891 2.37437 18.0807 2.30511 18.1136 2.27817C18.1631 2.23585 18.1521 2.15505 18.1375 2.09156C18.0349 1.66639 17.8993 1.25084 17.7308 0.848759C17.5897 0.510163 17.4047 0.129241 17.0365 0.0311253Z" fill="#587684"/>
<path d="M35.3166 31.3857L16.8716 0.514038L17.5769 0.521735L35.824 31.0548L35.3166 31.3857Z" fill="#587684"/>
<path d="M42.877 43.0422C42.6425 43.2 42.3311 43.1288 42.1809 42.8845L33.0765 28.0421C32.9263 27.7958 32.9941 27.4688 33.2267 27.311C33.4612 27.1533 33.7726 27.2244 33.9229 27.4688L43.0272 42.3112C43.1774 42.5555 43.1115 42.8845 42.877 43.0422Z" fill="#41606E"/>
<path d="M14.014 1.79148C13.9352 1.95308 13.8729 2.13007 13.8894 2.31091C13.9059 2.48983 14.0231 2.67067 14.1935 2.70338C14.3162 2.72647 14.4444 2.67067 14.5342 2.58218C14.624 2.49368 14.6844 2.3744 14.7339 2.2532C14.9152 1.80302 14.9794 1.26241 15.3402 0.952673C15.496 0.818003 15.6938 0.742973 15.844 0.598684C15.8825 0.562131 15.921 0.508263 15.9045 0.454395C15.8788 0.37167 15.7652 0.385138 15.6883 0.413996C14.994 0.681412 14.3638 1.0758 14.014 1.79148Z" fill="#698D9E"/>
<path d="M55.8043 40.2353C55.8043 40.2353 55.9545 38.9271 55.0514 38.5885C54.1483 38.2499 53.6116 40.5739 54.5788 41.4993C55.546 42.4246 55.8043 40.2353 55.8043 40.2353Z" fill="#FF845E"/>
<path d="M55.4178 40.193C55.4178 40.193 55.5003 39.4696 55.002 39.283C54.5037 39.0964 54.207 40.3796 54.74 40.8913C55.2749 41.4012 55.4178 40.193 55.4178 40.193Z" fill="#E0643F"/>
<path d="M34.0564 40.2584L37.8172 41.8379L38.9987 37.7074C38.9987 37.7074 40.5045 35.3161 40.5796 35.1583C40.6547 35.0006 40.4788 33.929 39.8908 33.4634C39.8908 33.4634 39.7864 32.2437 39.028 32.0417C39.028 32.0417 38.5517 31.1529 37.8428 31.2549C37.1339 31.3568 35.6757 32.9806 35.5787 33.4884C35.4816 33.9963 35.5548 37.4996 35.5548 37.4996L34.0564 40.2584Z" fill="#E8B660"/>
<g opacity="0.5">
<path opacity="0.5" d="M39.2076 32.1148C39.1527 32.0841 39.0941 32.0571 39.0281 32.0398C39.0281 32.0398 38.8871 31.7763 38.6434 31.5531C38.6196 31.6531 38.5445 31.7512 38.354 31.8051C37.8704 31.9398 37.2585 32.0417 37.0112 32.4707C37.0112 32.4707 38.2019 32.0571 39.2076 32.1148Z" fill="#E8B660"/>
<path opacity="0.5" d="M39.8872 33.4365C39.8799 33.3673 39.8506 33.1595 39.7755 32.9229C39.1929 32.9229 38.189 32.9864 37.7952 33.398C37.7952 33.3961 39.0299 33.2711 39.8872 33.4365Z" fill="#E8B660"/>
</g>
<path d="M40.9333 43.2962L44.4908 41.1954L43.148 39.4793C43.148 39.4793 42.9117 36.659 42.5783 35.8125C42.2449 34.966 41.3748 34.6043 40.1492 34.5139C38.9237 34.4235 36.4965 34.7274 36.6778 35.1353C36.861 35.5412 38.4401 35.9471 38.4731 35.9356C38.506 35.924 37.6671 36.5897 37.6249 37.4593C37.5828 38.3288 37.8832 38.3615 38.3229 37.7632C38.3229 37.7632 38.0756 39.1407 38.398 39.4216C38.7204 39.7044 39.0318 39.1734 39.0318 39.1734C39.0318 39.1734 38.9457 40.0314 39.2461 40.3469C39.5466 40.6624 39.8616 39.9602 39.8616 39.9602L40.9333 43.2962Z" fill="#FFC869"/>
<path d="M43.0272 42.3112L40.6183 38.3846C40.404 38.6251 40.186 38.9502 40.0266 39.3754L42.1809 42.8864C42.3311 43.1326 42.6443 43.2038 42.877 43.0441C43.1115 42.8845 43.1774 42.5555 43.0272 42.3112Z" fill="#41606E"/>
<path opacity="0.5" d="M38.473 35.9356C38.4987 35.9259 37.9674 36.353 37.7311 36.9687C38.2514 36.2953 39.1691 35.7278 39.6912 35.4411C39.345 35.597 38.8192 35.772 38.3228 35.6989C37.7109 35.6085 37.0826 35.2295 36.7382 34.9775C36.6778 35.0275 36.6558 35.0794 36.6796 35.1333C36.8609 35.5412 38.44 35.9471 38.473 35.9356Z" fill="#E8B660"/>
<path opacity="0.5" d="M39.8618 39.9602L39.9625 40.2758C40.208 38.9656 40.6422 38.2942 40.6422 38.2942C40.0633 39.0426 39.805 39.7409 39.6914 40.2411C39.794 40.1122 39.8618 39.9602 39.8618 39.9602Z" fill="#E8B660"/>
<path opacity="0.5" d="M39.0318 39.1753C39.0318 39.1753 38.9879 39.6139 39.074 39.9775C39.1876 38.173 40.1035 37.3938 40.2225 37.2996C39.3671 37.9325 38.9494 38.8425 38.7534 39.46C38.9146 39.3715 39.0318 39.1753 39.0318 39.1753Z" fill="#E8B660"/>
<path opacity="0.5" d="M40.2355 36.1838C38.9092 36.4704 38.1984 37.5266 37.8833 38.1614C38.0005 38.1326 38.1508 37.996 38.323 37.7632C38.323 37.7632 38.2369 38.2384 38.2332 38.6886C38.7846 36.5974 40.2355 36.1838 40.2355 36.1838Z" fill="#E8B660"/>
<path d="M76.7831 121.166C77.854 120.041 77.854 118.218 76.7831 117.093C75.7121 115.968 73.9758 115.968 72.9049 117.093C71.834 118.218 71.834 120.041 72.9049 121.166C73.9758 122.291 75.7122 122.291 76.7831 121.166Z" fill="#BCE1E8"/>
<path d="M73.2344 117.49C72.8753 117.929 72.7325 118.55 72.8607 119.112C72.8845 119.212 72.9175 119.316 72.9889 119.387C73.1337 119.53 73.381 119.485 73.5312 119.347C73.6796 119.208 73.7565 119.006 73.8334 118.814C73.9104 118.621 73.9983 118.421 74.1613 118.302C74.3702 118.15 74.6505 118.164 74.8794 118.048C74.9802 117.998 75.0681 117.923 75.1359 117.831C75.4748 117.375 75.1048 116.875 74.6303 116.823C74.1449 116.769 73.5385 117.119 73.2344 117.49Z" fill="#C6EEF5"/>
<path opacity="0.46" d="M70.4174 118.406C70.3642 118.406 65.7865 118.166 67.4095 118.593C69.0325 119.02 64.0041 119.395 66.5284 119.77C69.0526 120.145 74.4474 120.413 73.9748 119.689C73.5022 118.966 71.9653 118.995 73.1047 118.593C74.2441 118.191 70.4174 118.406 70.4174 118.406Z" fill="url(#paint1_linear_182_2651)"/>
<path d="M69.5839 119.243L69.5601 118.214L70.1389 118.679L70.3661 118.033L70.5035 118.731L70.9761 118.281L71.1318 119.318L70.4375 119.301L69.5839 119.243Z" fill="url(#paint2_linear_182_2651)"/>
<defs>
<linearGradient id="paint0_linear_182_2651" x1="29.7419" y1="110.787" x2="32.9897" y2="150.549" gradientUnits="userSpaceOnUse">
<stop offset="0.0859" stop-color="#C6DF53"/>
<stop offset="0.3172" stop-color="#AFD636"/>
<stop offset="0.4748" stop-color="#A3D227"/>
<stop offset="0.9571" stop-color="#86AD36"/>
</linearGradient>
<linearGradient id="paint1_linear_182_2651" x1="70.0544" y1="114.49" x2="69.6417" y2="127.407" gradientUnits="userSpaceOnUse">
<stop offset="0.0859" stop-color="#C6DF53"/>
<stop offset="0.3172" stop-color="#AFD636"/>
<stop offset="0.4748" stop-color="#A3D227"/>
<stop offset="0.9571" stop-color="#86AD36"/>
</linearGradient>
<linearGradient id="paint2_linear_182_2651" x1="70.153" y1="115.037" x2="70.5148" y2="121.835" gradientUnits="userSpaceOnUse">
<stop offset="0.0859" stop-color="#C6DF53"/>
<stop offset="0.3172" stop-color="#AFD636"/>
<stop offset="0.4748" stop-color="#A3D227"/>
<stop offset="0.9571" stop-color="#86AD36"/>
</linearGradient>
</defs>
</svg>
